Coordinates
version=1
nRows=13
nColumns=40
inDegrees=yes

Units are S.I. units (second, meters, Newtons, ...)
Angles are in degrees.

endheader
time	pelvis_tilt	pelvis_list	pelvis_rotation	pelvis_tx	pelvis_ty	pelvis_tz	hip_flexion_r	hip_adduction_r	hip_rotation_r	knee_angle_r	knee_angle_r_beta	ankle_angle_r	subtalar_angle_r	mtp_angle_r	hip_flexion_l	hip_adduction_l	hip_rotation_l	knee_angle_l	knee_angle_l_beta	ankle_angle_l	subtalar_angle_l	mtp_angle_l	lumbar_extension	lumbar_bending	lumbar_rotation	arm_flex_r	arm_add_r	arm_rot_r	elbow_flex_r	pro_sup_r	wrist_flex_r	wrist_dev_r	arm_flex_l	arm_add_l	arm_rot_l	elbow_flex_l	pro_sup_l	wrist_flex_l	wrist_dev_l
     21.86128571	     -4.81015013	     -4.64080921	      1.67985007	      1.02023885	      0.91042785	      0.55036172	     17.46089951	      5.70997115	     -8.65455828	     30.06619860	     30.06619860	     17.74642156	    -12.79430279	     -0.32938963	     33.98328555	    -13.72779888	      1.80048020	     67.47963534	     67.47963534	     13.75639406	    -19.52518321	     21.48882956	    -11.86045801	      5.68560342	      0.21313513	     15.14798647	    -17.39160290	    -13.80652033	     53.40733518	     45.47342148	      0.00000000	      0.00000000	      3.85570888	     -9.07887191	      1.10421163	     25.92844580	     46.03171203	      0.00000000	      0.00000000
     21.88007143	     -4.83075739	     -4.64046342	      2.26550431	      1.01871176	      0.91087123	      0.55007218	     16.95028774	      5.68517487	     -8.95482232	     29.60766333	     29.60766333	     17.88820577	    -12.88174912	     -0.14264859	     34.58241009	    -13.80453127	      1.46098657	     64.97679126	     64.97679126	     14.29132451	    -19.53793618	     21.81054884	    -11.84499219	      5.55846543	      0.26212167	     16.86807607	    -17.24920110	    -13.99773507	     55.52113636	     45.41666406	      0.00000000	      0.00000000	      2.00552731	     -8.79817890	      1.45891245	     25.35160568	     45.93298723	      0.00000000	      0.00000000
     21.89885714	     -4.97377730	     -4.60359947	      2.89822954	      1.01701221	      0.91163902	      0.54924263	     16.46830053	      5.56058367	     -9.39009807	     28.94361793	     28.94361793	     17.95100598	    -12.83691059	      0.01864288	     35.10136171	    -13.68915526	      1.12588059	     61.87308204	     61.87308204	     14.58192650	    -19.52914083	     21.91256925	    -11.71059555	      5.48255074	      0.25808567	     18.53846241	    -17.09731309	    -14.17932978	     58.07717225	     45.34494200	      0.00000000	      0.00000000	      0.14657226	     -8.57399423	      1.89227508	     25.14844617	     45.81463551	      0.00000000	      0.00000000
     21.91764286	     -5.39229199	     -4.57281548	      3.49493721	      1.01487966	      0.91230140	      0.54808804	     16.36542334	      5.39640535	     -9.80826039	     28.37113340	     28.37113340	     17.86736765	    -12.88463804	      0.16386596	     35.75509017	    -13.36973556	      0.95108791	     58.33884468	     58.33884468	     14.68419868	    -19.48545163	     22.16190931	    -11.26763256	      5.39647605	      0.94848229	     20.14676602	    -17.62402859	    -14.34692201	     59.17791676	     45.32233285	      0.00000000	      0.00000000	     -1.11300573	     -8.19590482	      2.01073508	     24.88178417	     45.76875073	      0.00000000	      0.00000000
     21.93642857	     -5.49861673	     -4.37424458	      4.17265732	      1.01304015	      0.91397237	      0.54651700	     15.45760996	      5.05665768	    -10.43027010	     27.00237997	     27.00237997	     17.68797051	    -12.29378087	     -0.13585482	     35.62991000	    -12.77084702	      0.72674817	     54.07788375	     54.07788375	     13.56736752	    -19.42261207	     19.67703519	    -11.44918021	      5.21563886	      0.87673071	     20.66659553	    -17.46718636	    -14.51303218	     65.93305610	     45.12115487	      0.00000000	      0.00000000	     -3.73086446	     -8.55100958	      4.27780113	     27.48368779	     45.28743948	      0.00000000	      0.00000000
     21.95521429	     -5.86747281	     -4.20199115	      4.83288161	      1.01085658	      0.91537012	      0.54462826	     14.93661516	      4.70564908	    -11.04479815	     25.77964794	     25.77964794	     17.28758411	    -11.92650989	     -0.70560085	     35.65599177	    -11.94602816	      0.83740472	     49.58353955	     49.58353955	     12.38915167	    -19.29245902	     17.85608126	    -11.19625353	      5.03733611	      1.31777235	     21.95246760	    -17.52784148	    -15.18816861	     69.32741409	     45.14932118	      0.00000000	      0.00000000	     -5.44146709	     -9.66402277	     12.23459293	     29.03439921	     44.17214314	      0.00000000	      0.00000000
     21.97400000	     -6.24482149	     -4.01724057	      5.45175668	      1.00857725	      0.91676067	      0.54238396	     14.42401330	      4.30397076	    -11.71854942	     24.58302704	     24.58302704	     17.09664850	    -11.25536319	     -0.78154030	     35.50508037	    -10.98906598	      1.14731425	     44.90979492	     44.90979492	     10.85265203	    -19.05047639	     15.66251534	    -11.02666938	      4.84798437	      1.44534768	     23.46133905	    -17.73277392	    -15.04232841	     72.94561886	     45.05962897	      0.00000000	      0.00000000	     -6.99952692	     -9.60578904	     12.59927877	     30.02828444	     44.18527363	      0.00000000	      0.00000000
     21.99278571	     -6.63227462	     -3.78542431	      6.03711054	      1.00624503	      0.91816574	      0.53993132	     13.90865126	      3.87989608	    -12.28779525	     23.37115567	     23.37115567	     16.90948394	    -10.71812396	     -0.66678824	     35.24662438	     -9.86994418	      1.74034219	     40.29041631	     40.29041631	      9.89106230	    -18.51826340	     15.56298820	    -10.79212272	      4.58139457	      1.41702004	     25.47894010	    -17.62101958	    -14.98790598	     75.22699039	     44.99596758	      0.00000000	      0.00000000	     -8.16391786	     -9.40867150	     12.80776319	     30.02461097	     44.15297040	      0.00000000	      0.00000000
     22.01157143	     -6.99275479	     -3.67558379	      6.54951177	      1.00398160	      0.91904683	      0.53737597	     13.43524675	      3.52234968	    -13.07333487	     22.30473780	     22.30473780	     16.63764878	     -9.80931772	     -1.37188648	     34.73073102	     -9.08121774	      2.06003928	     35.43259306	     35.43259306	      7.12557562	    -17.58205091	     10.10321469	    -10.76889049	      4.45960028	      1.98606018	     26.49928983	    -18.40250133	    -14.68501301	     80.24455168	     44.86810239	      0.00000000	      0.00000000	     -9.54811390	     -9.51803358	     13.52873828	     32.31177270	     44.12037950	      0.00000000	      0.00000000
     22.03035714	     -7.43127229	     -3.67862438	      7.04477126	      1.00177448	      0.91967327	      0.53482341	     13.02021320	      3.34029670	    -13.73674207	     21.15204537	     21.15204537	     16.45631731	     -9.12639746	     -1.44019096	     34.50506815	     -8.40651545	      2.47130965	     31.30642852	     31.30642852	      6.23736533	    -15.82489690	      9.56591332	    -10.51066662	      4.43156026	      1.78167245	     28.61301781	    -18.05258854	    -14.51659354	     82.91480812	     44.80067197	      0.00000000	      0.00000000	    -10.66186690	     -9.43502629	     14.04767574	     32.34411779	     44.07288248	      0.00000000	      0.00000000
     22.04914286	     -7.81001276	     -3.61014764	      7.41892121	      0.99968493	      0.92003893	      0.53227348	     12.67403305	      3.11648909	    -14.10438623	     20.28809679	     20.28809679	     16.36755938	     -8.74152343	     -1.42442440	     34.15846737	     -7.82522669	      2.50377398	     27.53573664	     27.53573664	      5.79841492	    -13.41193203	      9.59321561	    -10.30325346	      4.24326828	      1.98882775	     30.55912216	    -18.09172486	    -14.32828612	     84.94449547	     44.74337617	      0.00000000	      0.00000000	    -11.41218983	     -9.27069471	     14.25177367	     32.51970152	     44.04934377	      0.00000000	      0.00000000
     22.06792857	     -8.08725244	     -3.69960824	      7.76315845	      0.99785257	      0.92006141	      0.52969897	     12.26170483	      3.05231067	    -14.60117831	     19.51000554	     19.51000554	     16.35511542	     -8.18863810	     -1.55004218	     33.81621274	     -7.48833001	      2.34620662	     24.32842359	     24.32842359	      5.36501574	    -10.96062906	      9.28950820	    -10.24097984	      4.24413108	      2.02271979	     32.46631461	    -17.99787121	    -13.89707871	     87.68815834	     44.65739824	      0.00000000	      0.00000000	    -12.20004473	     -9.12226589	     14.47781776	     32.93608226	     44.02561672	      0.00000000	      0.00000000
     22.08671429	     -8.35270698	     -3.91796869	      8.01998445	      0.99625333	      0.91949013	      0.52714979	     11.94227552	      3.11599194	    -15.06652965	     18.90829256	     18.90829256	     16.24749583	     -7.72929526	     -2.30593958	     33.53268255	     -7.34668116	      2.01896941	     21.61827274	     21.61827274	      4.16367357	     -8.98220264	      6.69087721	    -10.22413029	      4.36559941	      2.58956955	     33.66363145	    -18.63067060	    -13.38444791	     91.63494148	     44.58474456	      0.00000000	      0.00000000	    -13.02227344	     -9.37549275	     15.50932585	     34.74654077	     44.00132020	      0.00000000	      0.00000000
